<svg width="800" height="800" viewBox="0 0 800 800" fill="none" xmlns="http://www.w3.org/2000/svg">
<rect width="800" height="800" fill="url(#paint0_linear_6_4)"/>
<g clip-path="url(#clip0_6_4)">
<mask id="mask0_6_4" style="mask-type:luminance" maskUnits="userSpaceOnUse" x="234" y="240" width="331" height="279">
<path d="M564.984 240H234.319V518.725H564.984V240Z" fill="white"/>
</mask>
<g mask="url(#mask0_6_4)">
<path d="M403.08 518.725C480.048 518.725 542.442 456.33 542.442 379.362C542.442 302.395 480.048 240 403.08 240C326.112 240 263.717 302.395 263.717 379.362C263.717 456.33 326.112 518.725 403.08 518.725Z" fill="#F1F0FF"/>
<path d="M480.423 318.605H394.967V450.937H480.423V318.605Z" fill="white"/>
<path d="M377.839 399.375H465.46" stroke="black"/>
<path d="M377.839 408.028H465.46" stroke="black"/>
<path d="M377.839 416.682H465.46" stroke="black"/>
<path d="M377.839 425.336H465.46" stroke="black"/>
<path d="M437.695 379.543C450.042 379.543 460.051 369.534 460.051 357.187C460.051 344.84 450.042 334.831 437.695 334.831C425.349 334.831 415.34 344.84 415.34 357.187C415.34 369.534 425.349 379.543 437.695 379.543Z" fill="#F2F2F2"/>
<path opacity="0.7" d="M500.796 365.661H465.46V398.474H500.796V365.661Z" fill="#98B9F2"/>
<path d="M474.634 382.196L479.541 380.274V381.029L475.528 382.545L479.541 384.064V384.82L474.634 382.893V382.196ZM483.885 378.574H484.524L482.568 384.74H481.929L483.885 378.574ZM491.739 382.902L486.832 384.82V384.064L490.841 382.545L486.832 381.029V380.274L491.739 382.196V382.902Z" fill="white"/>
<path d="M438.056 253.522H247.311V379.002H438.056V253.522Z" stroke="black"/>
<path d="M247.311 260.193H438.056" stroke="black"/>
<path d="M318.525 271.37H261.193V328.702H318.525V271.37Z" stroke="black"/>
<path d="M329.522 276.419H417.142" stroke="black"/>
<path d="M329.522 285.072H417.142" stroke="black"/>
<path d="M329.522 293.726H417.142" stroke="black"/>
<path d="M329.522 302.38H417.142" stroke="black"/>
<path opacity="0.44" fill-rule="evenodd" clip-rule="evenodd" d="M289.859 286.514L274.246 313.555H305.472L289.859 286.514Z" fill="#115DF1"/>
<path d="M251.458 258.569C252.354 258.569 253.08 257.843 253.08 256.947C253.08 256.051 252.354 255.325 251.458 255.325C250.562 255.325 249.835 256.051 249.835 256.947C249.835 257.843 250.562 258.569 251.458 258.569Z" fill="#AB8DE5"/>
<path d="M257.046 258.569C257.942 258.569 258.669 257.843 258.669 256.947C258.669 256.051 257.942 255.325 257.046 255.325C256.15 255.325 255.424 256.051 255.424 256.947C255.424 257.843 256.15 258.569 257.046 258.569Z" fill="#73E5E2"/>
<path d="M262.635 258.569C263.531 258.569 264.258 257.843 264.258 256.947C264.258 256.051 263.531 255.325 262.635 255.325C261.739 255.325 261.013 256.051 261.013 256.947C261.013 257.843 261.739 258.569 262.635 258.569Z" fill="#50B89D"/>
<path fill-rule="evenodd" clip-rule="evenodd" d="M331.325 355.835L336.733 351.058H331.217L331.325 355.835Z" fill="#70C3DE"/>
<path fill-rule="evenodd" clip-rule="evenodd" d="M325.917 342.403C325.917 339.864 326.814 337.697 328.61 335.902C330.405 334.107 332.572 333.209 335.111 333.209H358.549C361.088 333.209 363.255 334.107 365.05 335.902C366.845 337.697 367.743 339.864 367.743 342.403C367.743 344.942 366.845 347.109 365.05 348.905C363.255 350.7 361.088 351.598 358.549 351.598H335.111C332.572 351.598 330.405 350.7 328.61 348.905C326.814 347.109 325.917 344.942 325.917 342.403Z" fill="#70C3DE"/>
<path d="M341.241 344.026C342.137 344.026 342.864 343.299 342.864 342.403C342.864 341.507 342.137 340.781 341.241 340.781C340.345 340.781 339.619 341.507 339.619 342.403C339.619 343.299 340.345 344.026 341.241 344.026Z" fill="white"/>
<path d="M346.83 344.026C347.726 344.026 348.452 343.299 348.452 342.403C348.452 341.507 347.726 340.781 346.83 340.781C345.934 340.781 345.207 341.507 345.207 342.403C345.207 343.299 345.934 344.026 346.83 344.026Z" fill="white"/>
<path d="M352.418 344.026C353.314 344.026 354.041 343.299 354.041 342.403C354.041 341.507 353.314 340.781 352.418 340.781C351.522 340.781 350.796 341.507 350.796 342.403C350.796 343.299 351.522 344.026 352.418 344.026Z" fill="white"/>
<path fill-rule="evenodd" clip-rule="evenodd" d="M502.599 301.748L497.19 296.971H502.706L502.599 301.748Z" fill="#70C3DE"/>
<path fill-rule="evenodd" clip-rule="evenodd" d="M508.007 288.317C508.007 290.856 507.109 293.023 505.314 294.819C503.519 296.614 501.352 297.512 498.813 297.512H475.375C472.836 297.512 470.669 296.614 468.874 294.819C467.079 293.023 466.181 290.856 466.181 288.317C466.181 285.778 467.079 283.611 468.874 281.816C470.669 280.02 472.836 279.123 475.375 279.123H498.813C501.352 279.123 503.519 280.02 505.314 281.816C507.109 283.611 508.007 285.778 508.007 288.317Z" fill="#70C3DE"/>
<path d="M492.683 289.939C493.579 289.939 494.305 289.213 494.305 288.317C494.305 287.421 493.579 286.695 492.683 286.695C491.787 286.695 491.06 287.421 491.06 288.317C491.06 289.213 491.787 289.939 492.683 289.939Z" fill="white"/>
<path d="M487.093 289.939C487.989 289.939 488.716 289.213 488.716 288.317C488.716 287.421 487.989 286.695 487.093 286.695C486.197 286.695 485.471 287.421 485.471 288.317C485.471 289.213 486.197 289.939 487.093 289.939Z" fill="white"/>
<path d="M481.505 289.939C482.401 289.939 483.127 289.213 483.127 288.317C483.127 287.421 482.401 286.695 481.505 286.695C480.609 286.695 479.882 287.421 479.882 288.317C479.882 289.213 480.609 289.939 481.505 289.939Z" fill="white"/>
<path d="M499.714 256.947C500.61 256.947 501.336 256.221 501.336 255.325C501.336 254.429 500.61 253.702 499.714 253.702C498.818 253.702 498.092 254.429 498.092 255.325C498.092 256.221 498.818 256.947 499.714 256.947Z" fill="#B7CEF6"/>
<path d="M503.139 263.617C504.035 263.617 504.762 262.891 504.762 261.995C504.762 261.099 504.035 260.373 503.139 260.373C502.243 260.373 501.517 261.099 501.517 261.995C501.517 262.891 502.243 263.617 503.139 263.617Z" fill="#B7CEF6"/>
<path d="M465.82 330.325C467.214 330.325 468.344 329.195 468.344 327.801C468.344 326.406 467.214 325.276 465.82 325.276C464.426 325.276 463.295 326.406 463.295 327.801C463.295 329.195 464.426 330.325 465.82 330.325Z" fill="#B7CEF6"/>
<path d="M480.604 338.979C481.998 338.979 483.128 337.848 483.128 336.454C483.128 335.06 481.998 333.93 480.604 333.93C479.21 333.93 478.079 335.06 478.079 336.454C478.079 337.848 479.21 338.979 480.604 338.979Z" fill="#B7CEF6"/>
<path d="M253.442 341.863C254.836 341.863 255.966 340.733 255.966 339.339C255.966 337.945 254.836 336.815 253.442 336.815C252.048 336.815 250.917 337.945 250.917 339.339C250.917 340.733 252.048 341.863 253.442 341.863Z" fill="#F98B67"/>
<path fill-rule="evenodd" clip-rule="evenodd" d="M471.661 454.633V454.273L470.796 453.191L468.794 450.761L466.667 448.186C466.667 448.186 464.619 446.769 464.093 446.524C462.215 445.553 460.142 445.019 458.028 444.961C456.64 444.961 451.451 445.171 451.441 446.043C451.441 447.337 458.709 452.238 464.036 454.617C466.375 454.633 471.661 454.633 471.661 454.633Z" fill="#1F161E"/>
<path fill-rule="evenodd" clip-rule="evenodd" d="M470.561 454.633C463.166 448.943 448.068 417.908 451.941 406.406C460.183 410.607 469.227 425.091 473.493 437.322C473.722 438.118 473.907 438.927 474.044 439.744L475.775 447.677L476.194 454.647L470.561 454.633Z" fill="#6F9CEB"/>
<path fill-rule="evenodd" clip-rule="evenodd" d="M475.61 454.633C473.114 452.607 472.318 446.607 472.296 444.368C472.256 440.189 472.898 437.109 476.472 432.512C480.046 427.915 479.093 420.289 483.838 415.143C488.584 409.998 491.728 408.563 497.358 408.563C502.989 408.563 504.783 417.693 504.75 419.989C504.685 429.256 498.847 430.569 495.285 434.989C492.7 438.198 492.498 440.823 491.715 442.323C487.518 450.407 484.107 453.448 481.583 454.634" fill="#8ED5F4"/>
<path d="M476.987 453.962C477.059 438.158 493.711 414.417 497.273 410.862" stroke="white" stroke-width="0.4" stroke-linecap="round" stroke-linejoin="round"/>
<path d="M477.884 446.78C476.041 444.771 474.367 439.078 474.617 437.599" stroke="white" stroke-width="0.4" stroke-linecap="round" stroke-linejoin="round"/>
<path d="M473.165 453.269C470.554 448.643 458.168 426.085 453.549 409.47" stroke="white" stroke-width="0.4" stroke-linecap="round" stroke-linejoin="round"/>
<path fill-rule="evenodd" clip-rule="evenodd" d="M481.599 454.632H489.358L482.872 478.791H465.513L459.128 454.632H481.599Z" fill="#B37361"/>
<path d="M453.978 446.53C457.761 446.79 462.52 446.963 465.878 449.252" stroke="white" stroke-width="0.4" stroke-linecap="round" stroke-linejoin="round"/>
<path fill-rule="evenodd" clip-rule="evenodd" d="M513.937 355.745C513.025 360.097 506.398 414.083 508.565 426.977C510.731 439.871 546.065 466.889 547.611 467.362C549.414 466.038 552.066 461.7 552.066 461.7C552.066 461.7 526.159 431.668 525.665 430.464C525.171 429.26 531.34 359.712 531.34 359.712L513.937 355.745Z" fill="#5995FE"/>
<path fill-rule="evenodd" clip-rule="evenodd" d="M556.13 365.57L529.696 473.386H520.794L529.815 360.912L556.13 365.57Z" fill="#4286FF"/>
<path fill-rule="evenodd" clip-rule="evenodd" d="M537.357 303.84C541.006 303.84 560.041 304.457 563.481 311.156C566.92 317.855 563.679 348.825 561.541 350.022C560.387 350.668 560.073 350.04 559.738 351.351C559.403 352.661 556.132 365.568 556.132 365.568C554.055 365.626 523.777 361.064 513.944 355.732C514.002 354.247 514.478 350.396 514.478 350.1C513.173 350.633 511.594 350.745 511.161 350.1C507.324 344.291 513.043 314.006 517.146 307.912C518.89 305.301 531.496 303.858 537.357 303.84Z" fill="#6F9CEB"/>
<path fill-rule="evenodd" clip-rule="evenodd" d="M549.889 350.859C550.783 350.859 558.481 356.268 557.821 358.925C558.362 356.791 560.064 350.196 560.064 350.196C559.332 350.336 550.545 350.87 549.889 350.859Z" fill="#1F161E"/>
<path fill-rule="evenodd" clip-rule="evenodd" d="M542.067 307.374C542.067 308.546 532.797 308.546 532.797 307.374V295.475H542.067V307.374Z" fill="#F8CDBA"/>
<path fill-rule="evenodd" clip-rule="evenodd" d="M536.749 298.291C537.47 298.291 542.067 300.323 542.067 301.457V295.475C540.921 295.475 536.749 298.291 536.749 298.291Z" fill="#1F161E"/>
<path d="M535.48 299.16C540.46 299.16 544.498 295.122 544.498 290.142C544.498 285.161 540.46 281.124 535.48 281.124C530.499 281.124 526.462 285.161 526.462 290.142C526.462 295.122 530.499 299.16 535.48 299.16Z" fill="#F8CDBA"/>
<path fill-rule="evenodd" clip-rule="evenodd" d="M532.43 276.959C527.8 276.959 524.915 279.866 524.915 283.59C524.915 286.688 525.666 288.441 526.549 288.884C527.108 285.876 528.323 284.485 529.329 283.886C530.11 284.485 531.449 285.934 533.236 286.381C535.023 286.828 539.68 286.742 543.44 289.475C544.67 288.358 545.896 286.904 545.896 285.192C545.896 283.479 545.139 281.33 540.686 280.089C537.745 279.27 537.334 276.959 532.43 276.959Z" fill="#1F161E"/>
<path d="M527.054 292.821C527.926 292.821 528.633 292.453 528.633 291.999C528.633 291.545 527.926 291.177 527.054 291.177C526.181 291.177 525.474 291.545 525.474 291.999C525.474 292.453 526.181 292.821 527.054 292.821Z" fill="#FA9E9F"/>
<path d="M536.987 292.821C537.86 292.821 538.567 292.453 538.567 291.999C538.567 291.545 537.86 291.177 536.987 291.177C536.115 291.177 535.408 291.545 535.408 291.999C535.408 292.453 536.115 292.821 536.987 292.821Z" fill="#FA9E9F"/>
<path d="M530.912 290.293C530.617 290.716 529.109 292.486 530.699 293.2" stroke="#1F161E" stroke-linecap="round"/>
<path d="M533.883 295.265C534.536 295.105 535.104 294.704 535.476 294.144" stroke="#1F161E" stroke-linecap="round"/>
<path d="M543.816 293.265C544.967 293.265 545.901 292.332 545.901 291.181C545.901 290.029 544.967 289.096 543.816 289.096C542.665 289.096 541.732 290.029 541.732 291.181C541.732 292.332 542.665 293.265 543.816 293.265Z" fill="#F8CDBA"/>
<path d="M550.097 321.584C549.935 323.575 549.3 333.411 549.539 334.706C546.513 335.759 518.814 348.894 514.022 350.336" stroke="#1F161E" stroke-linecap="round"/>
<path d="M517.927 318.48C517.289 320.708 515.14 330.822 516.651 335.516" stroke="#1F161E" stroke-linecap="round"/>
<path d="M524.998 345.736C526.441 346.752 540.265 352.868 559.379 350.56" stroke="#1F161E" stroke-linecap="round"/>
<path fill-rule="evenodd" clip-rule="evenodd" d="M523.676 335.52C524.603 335.668 521.581 333.254 519.868 334.154C518.156 335.053 515.848 339.115 516.32 340.056C516.449 340.403 516.728 340.671 517.078 340.788C517.429 340.904 517.813 340.855 518.123 340.655C518.587 340.356 522.06 335.26 523.676 335.52Z" fill="#F8CDBA"/>
<path fill-rule="evenodd" clip-rule="evenodd" d="M551.771 462.143C552.264 462.504 556.646 465.468 556.682 467.336C556.718 469.204 552.6 475.395 551.771 475.571C550.941 475.748 550.35 475.049 550.35 473.797C550.35 472.546 551.913 470.354 551.706 469.38C551.499 468.406 549.474 466.625 548.435 466.593" fill="#1F161E"/>
<path fill-rule="evenodd" clip-rule="evenodd" d="M528.85 473.386C528.85 474.246 529.347 479.631 528.352 480.132C527.356 480.633 516.373 480.929 515.876 480.432C515.378 479.934 515.075 478.885 515.515 478.586C515.955 478.286 520.204 477.435 520.78 477.039C521.628 476.022 522.019 474.701 521.861 473.386" fill="#1F161E"/>
<path d="M313.426 433.391H243.698V468.76H313.426V433.391Z" fill="#B37361"/>
<path fill-rule="evenodd" clip-rule="evenodd" d="M347.779 416.815C348.082 418.618 353.223 459.835 354.056 460.516C354.89 461.198 363.734 462.708 364.491 461.576C364.643 459.773 364.851 431.028 365.32 428.457" fill="#1F161E"/>
<path fill-rule="evenodd" clip-rule="evenodd" d="M248.296 408.215C244.73 406.459 252.165 441.269 271.733 441.269C291.302 441.269 324.24 411.461 329.573 411.461C341.346 411.461 369.215 434.574 371.4 434.574C373.073 432.901 376.419 429.973 376.419 428.805C376.419 427.636 349.736 383.733 329.771 383.733C322.03 383.743 256.348 412.192 248.296 408.215Z" fill="#6FB7EB"/>
<path fill-rule="evenodd" clip-rule="evenodd" d="M259.308 408.808C263.221 407.921 268.089 405.624 272.397 403.277C260.674 407.106 251.069 409.587 248.296 408.217C246.406 407.287 247.604 416.604 252.047 425.579C251.242 423.842 250.095 410.912 259.308 408.808Z" fill="#1F161E"/>
<path fill-rule="evenodd" clip-rule="evenodd" d="M267.932 347.739C271.015 347.822 287.065 347.349 291.464 351.54C294.726 354.648 304.874 381.377 306.438 390.763C299.623 394.228 250.466 417.763 235.257 407.415C234.922 399.374 236.483 367.409 246.433 350.646C250.07 348.222 264.969 347.664 267.932 347.739Z" fill="white"/>
<path fill-rule="evenodd" clip-rule="evenodd" d="M274.185 340.091H264.807V350.166C264.807 352.69 274.185 352.667 274.185 350.166V340.091Z" fill="#F8CDBA"/>
<path fill-rule="evenodd" clip-rule="evenodd" d="M264.81 346.174C264.81 345.056 267.907 342.248 269.822 342.345C269.869 341.1 265.446 339.312 265.446 339.312L264.807 341.032L264.81 346.174Z" fill="#1F161E"/>
<path fill-rule="evenodd" clip-rule="evenodd" d="M284.003 340.091C284.214 339.115 284.32 338.12 284.321 337.122C284.321 329.686 278.512 323.658 271.34 323.658C264.168 323.658 258.359 329.686 258.359 337.122C258.359 338.117 258.465 339.112 258.675 340.088L284.003 340.091Z" fill="#1F161E"/>
<path fill-rule="evenodd" clip-rule="evenodd" d="M280.582 331.016C278.991 330.774 277.405 329.523 276.298 328.705C269.988 333.327 265.946 333.386 265.51 333.386C265.073 333.386 263.295 335.939 262.477 336.228L262.405 336.185C263.057 339.859 265.731 342.85 269.31 343.908C272.89 344.966 276.76 343.908 279.304 341.179C281.849 338.448 282.632 334.514 281.325 331.017C281.078 331.048 280.829 331.048 280.583 331.017L280.582 331.016Z" fill="#F8CDBA"/>
<path d="M264.309 325.337C266.424 325.337 268.139 323.623 268.139 321.508C268.139 319.393 266.424 317.678 264.309 317.678C262.194 317.678 260.48 319.393 260.48 321.508C260.48 323.623 262.194 325.337 264.309 325.337Z" fill="#1F161E"/>
<path d="M266.014 333.183C265.153 333.221 264.474 333.931 264.474 334.793C264.474 335.655 265.153 336.364 266.014 336.403" stroke="#1F161E" stroke-linecap="round"/>
<path d="M278.289 333.388C278.758 334.019 279.976 335.127 278.289 336.298" stroke="#1F161E" stroke-linecap="round"/>
<path d="M273.172 337.142C273.129 337.968 273.618 338.73 274.388 339.035" stroke="#1F161E" stroke-linecap="round"/>
<path d="M270.031 337.254C270.852 337.254 271.517 336.908 271.517 336.482C271.517 336.056 270.852 335.711 270.031 335.711C269.211 335.711 268.546 336.056 268.546 336.482C268.546 336.908 269.211 337.254 270.031 337.254Z" fill="#FA9E9F"/>
<path d="M281.076 337.254C281.896 337.254 282.561 336.908 282.561 336.482C282.561 336.056 281.896 335.711 281.076 335.711C280.255 335.711 279.59 336.056 279.59 336.482C279.59 336.908 280.255 337.254 281.076 337.254Z" fill="#FA9E9F"/>
<path fill-rule="evenodd" clip-rule="evenodd" d="M291.125 375.601L301.146 373.022C302.109 374.659 306.796 390.744 306.796 390.744L291.328 397.265C291.529 394.217 292.138 380.264 291.125 375.601Z" fill="#F8CDBA"/>
<path d="M255.991 373.081C255.649 375.779 255.106 378.449 254.368 381.068" stroke="#1F161E" stroke-linecap="round"/>
<path d="M291.125 375.602C290.884 373.694 289.47 362.946 287.062 357.288" stroke="#1F161E" stroke-linecap="round"/>
<path fill-rule="evenodd" clip-rule="evenodd" d="M291.125 375.601L301.146 373.022C302.109 374.659 306.796 390.744 306.796 390.744L291.328 397.265C291.529 394.217 292.138 380.264 291.125 375.601Z" fill="#F8CDBA"/>
<path fill-rule="evenodd" clip-rule="evenodd" d="M371.699 433.722C371.923 434.082 374.908 437.746 375.965 437.786C377.021 437.826 383.436 433.481 383.155 432.55C382.873 431.619 378.849 432.226 378.157 431.897C377.136 431.254 376.282 430.378 375.665 429.341" fill="#1F161E"/>
<path fill-rule="evenodd" clip-rule="evenodd" d="M355.923 460.899C355.845 461.299 355.441 466.02 356.172 466.784C356.904 467.548 364.534 468.875 364.981 468.006C365.428 467.137 362.097 464.783 361.84 464.069C361.557 462.898 361.557 461.678 361.84 460.507" fill="#1F161E"/>
<path fill-rule="evenodd" clip-rule="evenodd" d="M343.956 391.755H310.001L318.085 370.333H352.04L343.956 391.755Z" fill="#969696"/>
<path d="M315.662 390.948H281.707V391.755H315.662V390.948Z" fill="#969696"/>
<path fill-rule="evenodd" clip-rule="evenodd" d="M254.368 381.071C253.716 383.508 250.546 393.966 251.837 395.768C253.128 397.57 285.457 393.485 294.107 390.792C296.311 390.071 297.944 388.182 298.921 387.936C301.519 387.496 304.032 389.084 304.748 391.621C301.297 393.294 251.419 418.759 235.259 407.426C232.205 405.238 237.563 378.554 237.808 377.209C240.536 377.538 254.368 381.071 254.368 381.071Z" fill="#F8CDBA"/>
<path d="M291.587 391.442C292.561 391.207 293.412 390.984 294.112 390.767C296.315 390.046 297.948 388.157 298.925 387.911C301.523 387.471 304.036 389.059 304.752 391.596" stroke="#1F161E" stroke-linecap="round"/>
</g>
</g>
<g filter="url(#filter0_d_6_4)">
<path d="M286.003 564.32C284.736 564.32 283.603 564.02 282.603 563.42C281.616 562.82 280.843 561.973 280.283 560.88C279.723 559.773 279.443 558.48 279.443 557C279.443 555.507 279.723 554.213 280.283 553.12C280.843 552.013 281.616 551.16 282.603 550.56C283.603 549.947 284.736 549.64 286.003 549.64C287.269 549.64 288.389 549.947 289.363 550.56C290.349 551.16 291.123 552.013 291.683 553.12C292.256 554.213 292.543 555.507 292.543 557C292.543 558.48 292.256 559.773 291.683 560.88C291.123 561.973 290.349 562.82 289.363 563.42C288.389 564.02 287.269 564.32 286.003 564.32ZM286.003 562.08C286.843 562.08 287.569 561.873 288.183 561.46C288.796 561.033 289.269 560.44 289.603 559.68C289.949 558.907 290.123 558.013 290.123 557C290.123 555.973 289.949 555.08 289.603 554.32C289.269 553.547 288.796 552.953 288.183 552.54C287.569 552.113 286.843 551.9 286.003 551.9C285.176 551.9 284.449 552.113 283.823 552.54C283.196 552.953 282.709 553.547 282.363 554.32C282.029 555.08 281.863 555.973 281.863 557C281.863 558.013 282.029 558.907 282.363 559.68C282.709 560.44 283.196 561.033 283.823 561.46C284.449 561.873 285.176 562.08 286.003 562.08ZM293.974 564V554.38H295.994L296.114 555.52C296.381 555.147 296.734 554.827 297.174 554.56C297.614 554.28 298.134 554.14 298.734 554.14C299.734 554.14 300.547 554.46 301.174 555.1C301.814 555.74 302.134 556.68 302.134 557.92V564H299.874V558.46C299.874 557.7 299.721 557.133 299.414 556.76C299.107 556.373 298.694 556.18 298.174 556.18C297.601 556.18 297.134 556.38 296.774 556.78C296.414 557.167 296.234 557.747 296.234 558.52V564H293.974ZM304.099 564V549.74H306.359V564H304.099ZM308.626 564V554.38H310.866V564H308.626ZM309.726 552.8C309.339 552.8 309.006 552.66 308.726 552.38C308.446 552.1 308.306 551.767 308.306 551.38C308.306 550.993 308.446 550.66 308.726 550.38C309.006 550.1 309.339 549.96 309.726 549.96C310.113 549.96 310.446 550.1 310.726 550.38C311.006 550.66 311.146 550.993 311.146 551.38C311.146 551.767 311.006 552.1 310.726 552.38C310.446 552.66 310.113 552.8 309.726 552.8ZM313.079 564V554.38H315.099L315.219 555.52C315.486 555.147 315.839 554.827 316.279 554.56C316.719 554.28 317.239 554.14 317.839 554.14C318.839 554.14 319.653 554.46 320.279 555.1C320.919 555.74 321.239 556.68 321.239 557.92V564H318.979V558.46C318.979 557.7 318.826 557.133 318.519 556.76C318.213 556.373 317.799 556.18 317.279 556.18C316.706 556.18 316.239 556.38 315.879 556.78C315.519 557.167 315.339 557.747 315.339 558.52V564H313.079ZM327.404 564.22C326.004 564.22 324.871 563.8 324.004 562.96C323.138 562.107 322.704 560.847 322.704 559.18C322.704 558.14 322.898 557.247 323.284 556.5C323.671 555.74 324.211 555.16 324.904 554.76C325.598 554.347 326.391 554.14 327.284 554.14C328.178 554.14 328.938 554.36 329.564 554.8C330.191 555.227 330.671 555.813 331.004 556.56C331.338 557.307 331.504 558.147 331.504 559.08V559.6H324.924C324.978 560.56 325.231 561.247 325.684 561.66C326.138 562.06 326.724 562.26 327.444 562.26C328.071 562.26 328.584 562.113 328.984 561.82C329.384 561.513 329.731 561.06 330.024 560.46L331.684 561.62C331.191 562.54 330.584 563.207 329.864 563.62C329.158 564.02 328.338 564.22 327.404 564.22ZM325.024 557.86H329.284C329.178 557.233 328.944 556.753 328.584 556.42C328.238 556.073 327.791 555.9 327.244 555.9C326.658 555.9 326.171 556.06 325.784 556.38C325.411 556.7 325.158 557.193 325.024 557.86ZM344.3 564.32C343.033 564.32 341.9 564.02 340.9 563.42C339.913 562.82 339.14 561.973 338.58 560.88C338.02 559.773 337.74 558.48 337.74 557C337.74 555.507 338.02 554.213 338.58 553.12C339.14 552.013 339.913 551.16 340.9 550.56C341.9 549.947 343.033 549.64 344.3 549.64C345.473 549.64 346.526 549.9 347.46 550.42C348.393 550.94 349.146 551.667 349.72 552.6L347.66 553.8C347.286 553.2 346.813 552.733 346.24 552.4C345.68 552.067 345.033 551.9 344.3 551.9C343.473 551.9 342.746 552.113 342.12 552.54C341.493 552.953 341.006 553.547 340.66 554.32C340.326 555.08 340.16 555.973 340.16 557C340.16 558.013 340.326 558.907 340.66 559.68C341.006 560.44 341.493 561.033 342.12 561.46C342.746 561.873 343.473 562.08 344.3 562.08C345.033 562.08 345.68 561.913 346.24 561.58C346.813 561.247 347.286 560.78 347.66 560.18L349.72 561.38C349.146 562.3 348.393 563.02 347.46 563.54C346.526 564.06 345.473 564.32 344.3 564.32ZM355.317 564.22C354.437 564.22 353.644 564.013 352.937 563.6C352.244 563.173 351.69 562.587 351.277 561.84C350.877 561.08 350.677 560.193 350.677 559.18C350.677 558.167 350.877 557.287 351.277 556.54C351.69 555.78 352.244 555.193 352.937 554.78C353.644 554.353 354.437 554.14 355.317 554.14C356.224 554.14 357.024 554.353 357.717 554.78C358.424 555.193 358.977 555.78 359.377 556.54C359.777 557.287 359.977 558.167 359.977 559.18C359.977 560.193 359.777 561.08 359.377 561.84C358.977 562.587 358.424 563.173 357.717 563.6C357.024 564.013 356.224 564.22 355.317 564.22ZM355.317 562.18C356.024 562.18 356.597 561.92 357.037 561.4C357.49 560.88 357.717 560.14 357.717 559.18C357.717 558.22 357.49 557.48 357.037 556.96C356.597 556.44 356.024 556.18 355.317 556.18C354.624 556.18 354.057 556.44 353.617 556.96C353.177 557.48 352.957 558.22 352.957 559.18C352.957 560.14 353.177 560.88 353.617 561.4C354.057 561.92 354.624 562.18 355.317 562.18ZM364.659 564.22C363.659 564.22 362.839 563.9 362.199 563.26C361.573 562.62 361.259 561.673 361.259 560.42V554.38H363.519V559.92C363.519 560.653 363.673 561.213 363.979 561.6C364.299 561.987 364.713 562.18 365.219 562.18C365.793 562.18 366.259 561.98 366.619 561.58C366.979 561.18 367.159 560.593 367.159 559.82V554.38H369.419V564H367.399L367.279 562.86C367.026 563.22 366.679 563.54 366.239 563.82C365.799 564.087 365.273 564.22 364.659 564.22ZM371.368 564V554.38H373.408L373.548 555.74C373.788 555.26 374.162 554.873 374.668 554.58C375.188 554.287 375.735 554.14 376.308 554.14C376.535 554.14 376.742 554.153 376.928 554.18C377.115 554.207 377.275 554.24 377.408 554.28V556.46C377.235 556.407 377.028 556.367 376.788 556.34C376.562 556.3 376.295 556.28 375.988 556.28C375.335 556.28 374.775 556.493 374.308 556.92C373.855 557.347 373.628 557.947 373.628 558.72V564H371.368ZM381.965 564.2C381.178 564.2 380.432 564.067 379.725 563.8C379.018 563.52 378.392 563.08 377.845 562.48L379.245 560.98C379.992 561.82 380.938 562.24 382.085 562.24C382.632 562.24 383.025 562.167 383.265 562.02C383.518 561.86 383.645 561.573 383.645 561.16C383.645 560.96 383.585 560.8 383.465 560.68C383.345 560.547 383.118 560.427 382.785 560.32C382.465 560.213 381.992 560.1 381.365 559.98C380.432 559.793 379.685 559.487 379.125 559.06C378.565 558.633 378.285 557.96 378.285 557.04C378.285 556.44 378.445 555.927 378.765 555.5C379.085 555.06 379.518 554.72 380.065 554.48C380.612 554.24 381.218 554.12 381.885 554.12C382.632 554.12 383.312 554.233 383.925 554.46C384.538 554.673 385.072 555.013 385.525 555.48L384.265 557.06C383.945 556.713 383.585 556.467 383.185 556.32C382.785 556.173 382.365 556.1 381.925 556.1C381.432 556.1 381.078 556.187 380.865 556.36C380.665 556.533 380.565 556.74 380.565 556.98C380.565 557.153 380.612 557.3 380.705 557.42C380.812 557.54 381.012 557.653 381.305 557.76C381.598 557.867 382.025 557.987 382.585 558.12C383.652 558.373 384.478 558.74 385.065 559.22C385.652 559.7 385.945 560.373 385.945 561.24C385.945 562.213 385.572 562.953 384.825 563.46C384.092 563.953 383.138 564.2 381.965 564.2ZM391.424 564.22C390.024 564.22 388.891 563.8 388.024 562.96C387.157 562.107 386.724 560.847 386.724 559.18C386.724 558.14 386.917 557.247 387.304 556.5C387.691 555.74 388.231 555.16 388.924 554.76C389.617 554.347 390.411 554.14 391.304 554.14C392.197 554.14 392.957 554.36 393.584 554.8C394.211 555.227 394.691 555.813 395.024 556.56C395.357 557.307 395.524 558.147 395.524 559.08V559.6H388.944C388.997 560.56 389.251 561.247 389.704 561.66C390.157 562.06 390.744 562.26 391.464 562.26C392.091 562.26 392.604 562.113 393.004 561.82C393.404 561.513 393.751 561.06 394.044 560.46L395.704 561.62C395.211 562.54 394.604 563.207 393.884 563.62C393.177 564.02 392.357 564.22 391.424 564.22ZM389.044 557.86H393.304C393.197 557.233 392.964 556.753 392.604 556.42C392.257 556.073 391.811 555.9 391.264 555.9C390.677 555.9 390.191 556.06 389.804 556.38C389.431 556.7 389.177 557.193 389.044 557.86ZM400.614 564.2C399.827 564.2 399.08 564.067 398.374 563.8C397.667 563.52 397.04 563.08 396.494 562.48L397.894 560.98C398.64 561.82 399.587 562.24 400.734 562.24C401.28 562.24 401.674 562.167 401.914 562.02C402.167 561.86 402.294 561.573 402.294 561.16C402.294 560.96 402.234 560.8 402.114 560.68C401.994 560.547 401.767 560.427 401.434 560.32C401.114 560.213 400.64 560.1 400.014 559.98C399.08 559.793 398.334 559.487 397.774 559.06C397.214 558.633 396.934 557.96 396.934 557.04C396.934 556.44 397.094 555.927 397.414 555.5C397.734 555.06 398.167 554.72 398.714 554.48C399.26 554.24 399.867 554.12 400.534 554.12C401.28 554.12 401.96 554.233 402.574 554.46C403.187 554.673 403.72 555.013 404.174 555.48L402.914 557.06C402.594 556.713 402.234 556.467 401.834 556.32C401.434 556.173 401.014 556.1 400.574 556.1C400.08 556.1 399.727 556.187 399.514 556.36C399.314 556.533 399.214 556.74 399.214 556.98C399.214 557.153 399.26 557.3 399.354 557.42C399.46 557.54 399.66 557.653 399.954 557.76C400.247 557.867 400.674 557.987 401.234 558.12C402.3 558.373 403.127 558.74 403.714 559.22C404.3 559.7 404.594 560.373 404.594 561.24C404.594 562.213 404.22 562.953 403.474 563.46C402.74 563.953 401.787 564.2 400.614 564.2ZM409.958 564L415.298 550H417.338L422.678 564H420.058L418.978 560.92H413.598L412.518 564H409.958ZM414.358 558.78H418.238L416.318 553.32L414.358 558.78ZM423.603 564V554.38H425.623L425.743 555.52C426.009 555.147 426.363 554.827 426.803 554.56C427.243 554.28 427.763 554.14 428.363 554.14C429.363 554.14 430.176 554.46 430.803 555.1C431.443 555.74 431.763 556.68 431.763 557.92V564H429.503V558.46C429.503 557.7 429.349 557.133 429.043 556.76C428.736 556.373 428.323 556.18 427.803 556.18C427.229 556.18 426.763 556.38 426.403 556.78C426.043 557.167 425.863 557.747 425.863 558.52V564H423.603ZM437.868 564.22C436.988 564.22 436.194 564.02 435.488 563.62C434.794 563.22 434.241 562.647 433.828 561.9C433.428 561.14 433.228 560.233 433.228 559.18C433.228 558.127 433.428 557.227 433.828 556.48C434.241 555.72 434.794 555.14 435.488 554.74C436.194 554.34 436.988 554.14 437.868 554.14C438.881 554.14 439.714 554.507 440.368 555.24V549.74H442.628V564H440.668L440.568 562.9C440.234 563.313 439.834 563.64 439.368 563.88C438.914 564.107 438.414 564.22 437.868 564.22ZM437.968 562.18C438.674 562.18 439.261 561.92 439.728 561.4C440.194 560.88 440.428 560.14 440.428 559.18C440.428 558.22 440.194 557.48 439.728 556.96C439.261 556.44 438.674 556.18 437.968 556.18C437.261 556.18 436.674 556.44 436.208 556.96C435.741 557.48 435.508 558.22 435.508 559.18C435.508 560.14 435.741 560.88 436.208 561.4C436.674 561.92 437.261 562.18 437.968 562.18ZM449.881 564V550H454.381C455.781 550 456.988 550.26 458.001 550.78C459.028 551.3 459.814 552.08 460.361 553.12C460.921 554.16 461.201 555.453 461.201 557C461.201 558.533 460.921 559.82 460.361 560.86C459.814 561.9 459.028 562.687 458.001 563.22C456.988 563.74 455.781 564 454.381 564H449.881ZM452.181 561.86H454.201C455.641 561.86 456.761 561.447 457.561 560.62C458.374 559.78 458.781 558.573 458.781 557C458.781 555.413 458.374 554.207 457.561 553.38C456.761 552.553 455.641 552.14 454.201 552.14H452.181V561.86ZM462.958 564V554.38H465.198V564H462.958ZM464.058 552.8C463.671 552.8 463.338 552.66 463.058 552.38C462.778 552.1 462.638 551.767 462.638 551.38C462.638 550.993 462.778 550.66 463.058 550.38C463.338 550.1 463.671 549.96 464.058 549.96C464.445 549.96 464.778 550.1 465.058 550.38C465.338 550.66 465.478 550.993 465.478 551.38C465.478 551.767 465.338 552.1 465.058 552.38C464.778 552.66 464.445 552.8 464.058 552.8ZM470.871 564.2C470.085 564.2 469.338 564.067 468.631 563.8C467.925 563.52 467.298 563.08 466.751 562.48L468.151 560.98C468.898 561.82 469.845 562.24 470.991 562.24C471.538 562.24 471.931 562.167 472.171 562.02C472.425 561.86 472.551 561.573 472.551 561.16C472.551 560.96 472.491 560.8 472.371 560.68C472.251 560.547 472.025 560.427 471.691 560.32C471.371 560.213 470.898 560.1 470.271 559.98C469.338 559.793 468.591 559.487 468.031 559.06C467.471 558.633 467.191 557.96 467.191 557.04C467.191 556.44 467.351 555.927 467.671 555.5C467.991 555.06 468.425 554.72 468.971 554.48C469.518 554.24 470.125 554.12 470.791 554.12C471.538 554.12 472.218 554.233 472.831 554.46C473.445 554.673 473.978 555.013 474.431 555.48L473.171 557.06C472.851 556.713 472.491 556.467 472.091 556.32C471.691 556.173 471.271 556.1 470.831 556.1C470.338 556.1 469.985 556.187 469.771 556.36C469.571 556.533 469.471 556.74 469.471 556.98C469.471 557.153 469.518 557.3 469.611 557.42C469.718 557.54 469.918 557.653 470.211 557.76C470.505 557.867 470.931 557.987 471.491 558.12C472.558 558.373 473.385 558.74 473.971 559.22C474.558 559.7 474.851 560.373 474.851 561.24C474.851 562.213 474.478 562.953 473.731 563.46C472.998 563.953 472.045 564.2 470.871 564.2ZM480.07 564.22C479.123 564.22 478.397 564.047 477.89 563.7C477.397 563.353 477.15 562.66 477.15 561.62V556.32H475.31V554.38H477.15V551H479.39V554.38H482.05V556.32H479.39V561.04C479.39 561.493 479.497 561.8 479.71 561.96C479.937 562.12 480.257 562.2 480.67 562.2C480.923 562.2 481.177 562.16 481.43 562.08C481.697 562 481.903 561.92 482.05 561.84V563.9C481.81 563.993 481.51 564.067 481.15 564.12C480.79 564.187 480.43 564.22 480.07 564.22ZM486.485 564.14C485.445 564.18 484.585 563.953 483.905 563.46C483.239 562.967 482.905 562.253 482.905 561.32C482.905 560.64 483.112 560.06 483.525 559.58C483.939 559.1 484.472 558.727 485.125 558.46C485.779 558.18 486.452 558.033 487.145 558.02C487.492 557.993 487.819 558.02 488.125 558.1C488.432 558.18 488.705 558.293 488.945 558.44V557.6C488.945 556.973 488.812 556.567 488.545 556.38C488.279 556.193 487.885 556.1 487.365 556.1C486.805 556.1 486.212 556.207 485.585 556.42C484.972 556.62 484.445 556.873 484.005 557.18L482.985 555.44C483.532 555.093 484.192 554.793 484.965 554.54C485.739 554.273 486.539 554.14 487.365 554.14C488.605 554.14 489.539 554.393 490.165 554.9C490.792 555.393 491.105 556.293 491.105 557.6V562.02C491.105 562.3 491.165 562.46 491.285 562.5C491.419 562.54 491.712 562.493 492.165 562.36V563.78C491.965 563.873 491.712 563.953 491.405 564.02C491.112 564.1 490.792 564.14 490.445 564.14C490.032 564.14 489.712 564.073 489.485 563.94C489.272 563.793 489.119 563.553 489.025 563.22C488.692 563.5 488.305 563.72 487.865 563.88C487.425 564.027 486.965 564.113 486.485 564.14ZM486.445 562.18C487.192 562.153 487.805 562.007 488.285 561.74C488.779 561.473 489.012 561.093 488.985 560.6C488.972 560.28 488.805 560.06 488.485 559.94C488.179 559.82 487.792 559.773 487.325 559.8C486.672 559.813 486.132 559.98 485.705 560.3C485.279 560.607 485.072 560.953 485.085 561.34C485.112 561.94 485.565 562.22 486.445 562.18ZM493.509 564V554.38H495.529L495.649 555.52C495.916 555.147 496.269 554.827 496.709 554.56C497.149 554.28 497.669 554.14 498.269 554.14C499.269 554.14 500.082 554.46 500.709 555.1C501.349 555.74 501.669 556.68 501.669 557.92V564H499.409V558.46C499.409 557.7 499.256 557.133 498.949 556.76C498.642 556.373 498.229 556.18 497.709 556.18C497.136 556.18 496.669 556.38 496.309 556.78C495.949 557.167 495.769 557.747 495.769 558.52V564H493.509ZM507.774 564.22C506.894 564.22 506.101 564.013 505.394 563.6C504.701 563.173 504.147 562.587 503.734 561.84C503.334 561.08 503.134 560.193 503.134 559.18C503.134 558.167 503.334 557.287 503.734 556.54C504.147 555.78 504.701 555.193 505.394 554.78C506.101 554.353 506.894 554.14 507.774 554.14C508.561 554.14 509.274 554.3 509.914 554.62C510.567 554.94 511.101 555.4 511.514 556L509.714 557.32C509.301 556.56 508.654 556.18 507.774 556.18C507.081 556.18 506.514 556.44 506.074 556.96C505.634 557.48 505.414 558.22 505.414 559.18C505.414 560.14 505.634 560.88 506.074 561.4C506.514 561.92 507.081 562.18 507.774 562.18C508.641 562.18 509.294 561.807 509.734 561.06L511.514 562.36C511.101 562.947 510.567 563.407 509.914 563.74C509.274 564.06 508.561 564.22 507.774 564.22ZM516.768 564.22C515.368 564.22 514.234 563.8 513.368 562.96C512.501 562.107 512.068 560.847 512.068 559.18C512.068 558.14 512.261 557.247 512.648 556.5C513.034 555.74 513.574 555.16 514.268 554.76C514.961 554.347 515.754 554.14 516.648 554.14C517.541 554.14 518.301 554.36 518.928 554.8C519.554 555.227 520.034 555.813 520.368 556.56C520.701 557.307 520.868 558.147 520.868 559.08V559.6H514.288C514.341 560.56 514.594 561.247 515.048 561.66C515.501 562.06 516.088 562.26 516.808 562.26C517.434 562.26 517.948 562.113 518.348 561.82C518.748 561.513 519.094 561.06 519.388 560.46L521.048 561.62C520.554 562.54 519.948 563.207 519.228 563.62C518.521 564.02 517.701 564.22 516.768 564.22ZM514.388 557.86H518.648C518.541 557.233 518.308 556.753 517.948 556.42C517.601 556.073 517.154 555.9 516.608 555.9C516.021 555.9 515.534 556.06 515.148 556.38C514.774 556.7 514.521 557.193 514.388 557.86ZM325.615 602V588H327.915V599.86H335.215V602H325.615ZM340.522 602.22C339.122 602.22 337.988 601.8 337.122 600.96C336.255 600.107 335.822 598.847 335.822 597.18C335.822 596.14 336.015 595.247 336.402 594.5C336.788 593.74 337.328 593.16 338.022 592.76C338.715 592.347 339.508 592.14 340.402 592.14C341.295 592.14 342.055 592.36 342.682 592.8C343.308 593.227 343.788 593.813 344.122 594.56C344.455 595.307 344.622 596.147 344.622 597.08V597.6H338.042C338.095 598.56 338.348 599.247 338.802 599.66C339.255 600.06 339.842 600.26 340.562 600.26C341.188 600.26 341.702 600.113 342.102 599.82C342.502 599.513 342.848 599.06 343.142 598.46L344.802 599.62C344.308 600.54 343.702 601.207 342.982 601.62C342.275 602.02 341.455 602.22 340.522 602.22ZM338.142 595.86H342.402C342.295 595.233 342.062 594.753 341.702 594.42C341.355 594.073 340.908 593.9 340.362 593.9C339.775 593.9 339.288 594.06 338.902 594.38C338.528 594.7 338.275 595.193 338.142 595.86ZM349.216 602.14C348.176 602.18 347.316 601.953 346.636 601.46C345.969 600.967 345.636 600.253 345.636 599.32C345.636 598.64 345.843 598.06 346.256 597.58C346.669 597.1 347.203 596.727 347.856 596.46C348.509 596.18 349.183 596.033 349.876 596.02C350.223 595.993 350.549 596.02 350.856 596.1C351.163 596.18 351.436 596.293 351.676 596.44V595.6C351.676 594.973 351.543 594.567 351.276 594.38C351.009 594.193 350.616 594.1 350.096 594.1C349.536 594.1 348.943 594.207 348.316 594.42C347.703 594.62 347.176 594.873 346.736 595.18L345.716 593.44C346.263 593.093 346.923 592.793 347.696 592.54C348.469 592.273 349.269 592.14 350.096 592.14C351.336 592.14 352.269 592.393 352.896 592.9C353.523 593.393 353.836 594.293 353.836 595.6V600.02C353.836 600.3 353.896 600.46 354.016 600.5C354.149 600.54 354.443 600.493 354.896 600.36V601.78C354.696 601.873 354.443 601.953 354.136 602.02C353.843 602.1 353.523 602.14 353.176 602.14C352.763 602.14 352.443 602.073 352.216 601.94C352.003 601.793 351.849 601.553 351.756 601.22C351.423 601.5 351.036 601.72 350.596 601.88C350.156 602.027 349.696 602.113 349.216 602.14ZM349.176 600.18C349.923 600.153 350.536 600.007 351.016 599.74C351.509 599.473 351.743 599.093 351.716 598.6C351.703 598.28 351.536 598.06 351.216 597.94C350.909 597.82 350.523 597.773 350.056 597.8C349.403 597.813 348.863 597.98 348.436 598.3C348.009 598.607 347.803 598.953 347.816 599.34C347.843 599.94 348.296 600.22 349.176 600.18ZM356.24 602V592.38H358.28L358.42 593.74C358.66 593.26 359.033 592.873 359.54 592.58C360.06 592.287 360.606 592.14 361.18 592.14C361.406 592.14 361.613 592.153 361.8 592.18C361.986 592.207 362.146 592.24 362.28 592.28V594.46C362.106 594.407 361.9 594.367 361.66 594.34C361.433 594.3 361.166 594.28 360.86 594.28C360.206 594.28 359.646 594.493 359.18 594.92C358.726 595.347 358.5 595.947 358.5 596.72V602H356.24ZM363.376 602V592.38H365.396L365.516 593.52C365.783 593.147 366.136 592.827 366.576 592.56C367.016 592.28 367.536 592.14 368.136 592.14C369.136 592.14 369.95 592.46 370.576 593.1C371.216 593.74 371.536 594.68 371.536 595.92V602H369.276V596.46C369.276 595.7 369.123 595.133 368.816 594.76C368.51 594.373 368.096 594.18 367.576 594.18C367.003 594.18 366.536 594.38 366.176 594.78C365.816 595.167 365.636 595.747 365.636 596.52V602H363.376ZM373.821 602V592.38H376.061V602H373.821ZM374.921 590.8C374.535 590.8 374.201 590.66 373.921 590.38C373.641 590.1 373.501 589.767 373.501 589.38C373.501 588.993 373.641 588.66 373.921 588.38C374.201 588.1 374.535 587.96 374.921 587.96C375.308 587.96 375.641 588.1 375.921 588.38C376.201 588.66 376.341 588.993 376.341 589.38C376.341 589.767 376.201 590.1 375.921 590.38C375.641 590.66 375.308 590.8 374.921 590.8ZM378.275 602V592.38H380.295L380.415 593.52C380.681 593.147 381.035 592.827 381.475 592.56C381.915 592.28 382.435 592.14 383.035 592.14C384.035 592.14 384.848 592.46 385.475 593.1C386.115 593.74 386.435 594.68 386.435 595.92V602H384.175V596.46C384.175 595.7 384.021 595.133 383.715 594.76C383.408 594.373 382.995 594.18 382.475 594.18C381.901 594.18 381.435 594.38 381.075 594.78C380.715 595.167 380.535 595.747 380.535 596.52V602H378.275ZM392.34 605.98C391.34 605.98 390.486 605.793 389.78 605.42C389.073 605.047 388.486 604.467 388.02 603.68L389.84 602.48C390.106 602.973 390.44 603.34 390.84 603.58C391.24 603.82 391.74 603.94 392.34 603.94C393.126 603.94 393.706 603.7 394.08 603.22C394.453 602.74 394.64 601.973 394.64 600.92V600.38C394.013 601.033 393.22 601.36 392.26 601.36C391.42 601.36 390.666 601.187 390 600.84C389.346 600.48 388.833 599.96 388.46 599.28C388.086 598.587 387.9 597.74 387.9 596.74C387.9 595.727 388.086 594.88 388.46 594.2C388.833 593.52 389.346 593.007 390 592.66C390.666 592.313 391.42 592.14 392.26 592.14C393.326 592.14 394.186 592.52 394.84 593.28L394.92 592.38H396.88V600.92C396.88 602.507 396.506 603.747 395.76 604.64C395.026 605.533 393.886 605.98 392.34 605.98ZM392.44 599.38C393.133 599.38 393.7 599.147 394.14 598.68C394.58 598.2 394.8 597.553 394.8 596.74C394.8 595.913 394.58 595.273 394.14 594.82C393.7 594.353 393.133 594.12 392.44 594.12C391.746 594.12 391.193 594.353 390.78 594.82C390.38 595.273 390.18 595.913 390.18 596.74C390.18 597.553 390.38 598.2 390.78 598.68C391.193 599.147 391.746 599.38 392.44 599.38ZM404.143 602V588H410.543C411.849 588 412.883 588.307 413.643 588.92C414.416 589.533 414.803 590.567 414.803 592.02C414.803 593.473 414.416 594.513 413.643 595.14C412.883 595.767 411.849 596.08 410.543 596.08H406.443V602H404.143ZM406.443 593.92H410.223C410.903 593.92 411.429 593.773 411.803 593.48C412.176 593.187 412.363 592.7 412.363 592.02C412.363 591.353 412.176 590.873 411.803 590.58C411.429 590.287 410.903 590.14 410.223 590.14H406.443V593.92ZM416.06 602V587.74H418.32V602H416.06ZM423.427 602.14C422.387 602.18 421.527 601.953 420.847 601.46C420.18 600.967 419.847 600.253 419.847 599.32C419.847 598.64 420.054 598.06 420.467 597.58C420.88 597.1 421.414 596.727 422.067 596.46C422.72 596.18 423.394 596.033 424.087 596.02C424.434 595.993 424.76 596.02 425.067 596.1C425.374 596.18 425.647 596.293 425.887 596.44V595.6C425.887 594.973 425.754 594.567 425.487 594.38C425.22 594.193 424.827 594.1 424.307 594.1C423.747 594.1 423.154 594.207 422.527 594.42C421.914 594.62 421.387 594.873 420.947 595.18L419.927 593.44C420.474 593.093 421.134 592.793 421.907 592.54C422.68 592.273 423.48 592.14 424.307 592.14C425.547 592.14 426.48 592.393 427.107 592.9C427.734 593.393 428.047 594.293 428.047 595.6V600.02C428.047 600.3 428.107 600.46 428.227 600.5C428.36 600.54 428.654 600.493 429.107 600.36V601.78C428.907 601.873 428.654 601.953 428.347 602.02C428.054 602.1 427.734 602.14 427.387 602.14C426.974 602.14 426.654 602.073 426.427 601.94C426.214 601.793 426.06 601.553 425.967 601.22C425.634 601.5 425.247 601.72 424.807 601.88C424.367 602.027 423.907 602.113 423.427 602.14ZM423.387 600.18C424.134 600.153 424.747 600.007 425.227 599.74C425.72 599.473 425.954 599.093 425.927 598.6C425.914 598.28 425.747 598.06 425.427 597.94C425.12 597.82 424.734 597.773 424.267 597.8C423.614 597.813 423.074 597.98 422.647 598.3C422.22 598.607 422.014 598.953 422.027 599.34C422.054 599.94 422.507 600.22 423.387 600.18ZM433.785 602.22C432.838 602.22 432.112 602.047 431.605 601.7C431.112 601.353 430.865 600.66 430.865 599.62V594.32H429.025V592.38H430.865V589H433.105V592.38H435.765V594.32H433.105V599.04C433.105 599.493 433.212 599.8 433.425 599.96C433.652 600.12 433.972 600.2 434.385 600.2C434.638 600.2 434.892 600.16 435.145 600.08C435.412 600 435.618 599.92 435.765 599.84V601.9C435.525 601.993 435.225 602.067 434.865 602.12C434.505 602.187 434.145 602.22 433.785 602.22ZM438.04 602V594.32H436.22V592.38H438.04V590.66C438.04 589.473 438.314 588.653 438.86 588.2C439.407 587.747 440.187 587.52 441.2 587.52C441.52 587.52 441.84 587.54 442.16 587.58C442.494 587.62 442.76 587.667 442.96 587.72V589.76C442.774 589.693 442.567 589.64 442.34 589.6C442.127 589.547 441.907 589.52 441.68 589.52C441.227 589.52 440.88 589.633 440.64 589.86C440.4 590.073 440.28 590.433 440.28 590.94V592.38H442.96V594.32H440.28V602H438.04ZM448.063 602.22C447.183 602.22 446.39 602.013 445.683 601.6C444.99 601.173 444.436 600.587 444.023 599.84C443.623 599.08 443.423 598.193 443.423 597.18C443.423 596.167 443.623 595.287 444.023 594.54C444.436 593.78 444.99 593.193 445.683 592.78C446.39 592.353 447.183 592.14 448.063 592.14C448.97 592.14 449.77 592.353 450.463 592.78C451.17 593.193 451.723 593.78 452.123 594.54C452.523 595.287 452.723 596.167 452.723 597.18C452.723 598.193 452.523 599.08 452.123 599.84C451.723 600.587 451.17 601.173 450.463 601.6C449.77 602.013 448.97 602.22 448.063 602.22ZM448.063 600.18C448.77 600.18 449.343 599.92 449.783 599.4C450.236 598.88 450.463 598.14 450.463 597.18C450.463 596.22 450.236 595.48 449.783 594.96C449.343 594.44 448.77 594.18 448.063 594.18C447.37 594.18 446.803 594.44 446.363 594.96C445.923 595.48 445.703 596.22 445.703 597.18C445.703 598.14 445.923 598.88 446.363 599.4C446.803 599.92 447.37 600.18 448.063 600.18ZM454.165 602V592.38H456.205L456.345 593.74C456.585 593.26 456.959 592.873 457.465 592.58C457.985 592.287 458.532 592.14 459.105 592.14C459.332 592.14 459.539 592.153 459.725 592.18C459.912 592.207 460.072 592.24 460.205 592.28V594.46C460.032 594.407 459.825 594.367 459.585 594.34C459.359 594.3 459.092 594.28 458.785 594.28C458.132 594.28 457.572 594.493 457.105 594.92C456.652 595.347 456.425 595.947 456.425 596.72V602H454.165ZM461.302 602V592.38H463.322L463.462 593.54C463.649 593.14 463.962 592.807 464.402 592.54C464.842 592.273 465.349 592.14 465.922 592.14C466.549 592.14 467.095 592.287 467.562 592.58C468.029 592.873 468.389 593.293 468.642 593.84C468.895 593.347 469.262 592.94 469.742 592.62C470.235 592.3 470.795 592.14 471.422 592.14C472.369 592.14 473.129 592.473 473.702 593.14C474.289 593.793 474.582 594.72 474.582 595.92V602H472.302V596.44C472.302 595.733 472.175 595.18 471.922 594.78C471.669 594.38 471.315 594.18 470.862 594.18C470.289 594.18 469.842 594.387 469.522 594.8C469.215 595.213 469.062 595.8 469.062 596.56V602H466.802V596.44C466.802 595.733 466.669 595.18 466.402 594.78C466.135 594.38 465.775 594.18 465.322 594.18C464.762 594.18 464.329 594.393 464.022 594.82C463.715 595.233 463.562 595.813 463.562 596.56V602H461.302Z" fill="white"/>
</g>
<defs>
<filter id="filter0_d_6_4" x="275.443" y="549.64" width="249.605" height="64.34" filterUnits="userSpaceOnUse" color-interpolation-filters="sRGB">
<feFlood flood-opacity="0" result="BackgroundImageFix"/>
<feColorMatrix in="SourceAlpha" type="matrix" values="0 0 0 0 0 0 0 0 0 0 0 0 0 0 0 0 0 0 127 0" result="hardAlpha"/>
<feOffset dy="4"/>
<feGaussianBlur stdDeviation="2"/>
<feComposite in2="hardAlpha" operator="out"/>
<feColorMatrix type="matrix" values="0 0 0 0 0 0 0 0 0 0 0 0 0 0 0 0 0 0 0.25 0"/>
<feBlend mode="normal" in2="BackgroundImageFix" result="effect1_dropShadow_6_4"/>
<feBlend mode="normal" in="SourceGraphic" in2="effect1_dropShadow_6_4" result="shape"/>
</filter>
<linearGradient id="paint0_linear_6_4" x1="976" y1="400" x2="-352" y2="400" gradientUnits="userSpaceOnUse">
<stop stop-color="#00D4FF" stop-opacity="0.37"/>
<stop offset="0.615" stop-color="#5491FF"/>
<stop offset="1" stop-color="#005CFF"/>
</linearGradient>
<clipPath id="clip0_6_4">
<rect width="331.361" height="279" fill="white" transform="translate(234.319 240)"/>
</clipPath>
</defs>
</svg>
